<svg width="1200" height="800" viewBox="0 0 1200 800" xmlns="http://www.w3.org/2000/svg" role="img" aria-label="Finance hero image">
  <defs>
    <linearGradient id="g1" x1="0" y1="0" x2="1" y2="1">
      <stop offset="0%" stop-color="#e3f2fd"/>
      <stop offset="100%" stop-color="#ffffff"/>
    </linearGradient>
    <linearGradient id="g2" x1="0" y1="0" x2="0" y2="1">
      <stop offset="0%" stop-color="#1E88E5"/>
      <stop offset="100%" stop-color="#64b5f6"/>
    </linearGradient>
    <linearGradient id="g3" x1="0" y1="0" x2="0" y2="1">
      <stop offset="0%" stop-color="#00bcd4"/>
      <stop offset="100%" stop-color="#80deea"/>
    </linearGradient>
  </defs>
  <rect width="1200" height="800" fill="url(#g1)"/>
  <!-- Abstract card -->
  <g transform="translate(180,140)">
    <rect width="840" height="520" rx="24" fill="#ffffff" stroke="#e5e7eb"/>
    <rect x="40" y="40" width="760" height="22" rx="11" fill="#1E88E5" opacity="0.12"/>
    <rect x="40" y="80" width="400" height="14" rx="7" fill="#94a3b8"/>
    <rect x="40" y="104" width="320" height="10" rx="5" fill="#cbd5e1"/>
    <!-- Bars -->
    <g transform="translate(60,180)">
      <rect x="0" y="60" width="36" height="140" rx="8" fill="url(#g2)"/>
      <rect x="60" y="40" width="36" height="160" rx="8" fill="url(#g3)"/>
      <rect x="120" y="20" width="36" height="180" rx="8" fill="url(#g2)"/>
      <rect x="180" y="80" width="36" height="120" rx="8" fill="#e0e7ff"/>
      <rect x="240" y="30" width="36" height="170" rx="8" fill="#bbdefb"/>
    </g>
    <!-- Pie chart -->
    <g transform="translate(640,220)">
      <circle cx="0" cy="0" r="64" fill="#e5e7eb"/>
      <path d="M0,-64 A64,64 0 0,1 55,24 L0,0 Z" fill="#1E88E5"/>
      <path d="M55,24 A64,64 0 0,1 -50,40 L0,0 Z" fill="#80deea"/>
      <path d="M-50,40 A64,64 0 0,1 0,-64 L0,0 Z" fill="#64b5f6"/>
    </g>
  </g>
</svg>
